PathFileType	4	(X/Y/Z)	C:/Users/opensim2020/Desktop/walking_exp_matlab/subject01_walking05_straight_02.trc	
DataRate	CameraRate	NumFrames	NumMarkers	Units	OrigDataRate	OrigDataStartFrame	OrigNumFrames	
100.00	100.00	4	43	mm	100.00	1552	205	
Frame#	Time	LFHD			RFHD			LBHD			RBHD			C7			T10			CLAV			STRN			RBAK			LSHO			LUPA			LELB			LFRM			LWRA			LWRB			LFIN			RSHO			RUPA			RELB			RFRM			RWRA			RWRB			RFIN			LASI			RASI			LPSI			RPSI			LTHI			LKNE			LTIB			LANK			LHEE			LTOE			RTHI			RKNE			RTIB			RANK			RHEE			RTOE			*39			*40			*41			*42			
		X1	Y1	Z1	X2	Y2	Z2	X3	Y3	Z3	X4	Y4	Z4	X5	Y5	Z5	X6	Y6	Z6	X7	Y7	Z7	X8	Y8	Z8	X9	Y9	Z9	X10	Y10	Z10	X11	Y11	Z11	X12	Y12	Z12	X13	Y13	Z13	X14	Y14	Z14	X15	Y15	Z15	X16	Y16	Z16	X17	Y17	Z17	X18	Y18	Z18	X19	Y19	Z19	X20	Y20	Z20	X21	Y21	Z21	X22	Y22	Z22	X23	Y23	Z23	X24	Y24	Z24	X25	Y25	Z25	X26	Y26	Z26	X27	Y27	Z27	X28	Y28	Z28	X29	Y29	Z29	X30	Y30	Z30	X31	Y31	Z31	X32	Y32	Z32	X33	Y33	Z33	X34	Y34	Z34	X35	Y35	Z35	X36	Y36	Z36	X37	Y37	Z37	X38	Y38	Z38	X39	Y39	Z39	X40	Y40	Z40	X41	Y41	Z41	X42	Y42	Z42	X43	Y43	Z43	

77	0.760	1476.29333	355.53369	1674.23413	1364.92578	331.53943	1681.68140	1457.18481	468.07233	1622.49097	1338.20496	445.89273	1628.85181	1412.51160	499.48248	1435.94934	1404.49829	534.12946	1142.16968	1422.66736	354.00891	1368.36475	1430.07825	311.33966	1215.50305	1330.80908	546.90430	1241.10535	1578.26978	430.46463	1399.36267	1659.08606	480.46097	1219.65649	1659.82190	505.16116	1069.56665	1700.70386	473.44061	963.87836	1713.97815	388.62225	852.56769	1720.87146	448.32169	845.56024	1748.28906	402.15439	779.72144	1266.88306	408.28769	1397.45825	1158.02979	462.44589	1201.82813	1146.87341	461.73508	1076.60535	1112.20227	422.28076	963.23322	1128.08362	330.02567	855.24493	1087.73523	372.85648	853.60126	1086.86682	327.22638	781.17407	1518.89075	361.45523	938.48132	1302.03076	353.25522	940.53210	1462.95789	545.05774	944.13428	1318.53564	539.23932	949.90027	1594.48230	314.46341	621.98883	1587.98352	292.38800	491.61261	1587.47131	418.79657	359.36893	1535.83667	548.69373	184.08672	1474.23425	592.85254	177.66470	1557.87292	458.45425	71.83860	1256.81250	403.83600	603.81360	1288.35144	397.32745	446.05603	1285.56079	457.01935	278.89569	1342.30176	492.05411	77.13042	1392.08093	544.32800	42.51586	1347.88074	351.98807	35.71439	1385.97266	347.77325	1714.55066	-3101.90771	1973.16956	1023.29346	-3140.63086	2012.64868	1022.10583			 
78	0.770	1476.09204	345.97314	1674.03064	1364.74365	321.84305	1681.52637	1456.68567	458.50012	1622.47217	1337.84497	436.19162	1628.92529	1412.01001	490.15732	1435.99524	1403.77417	525.02576	1142.21387	1422.38733	344.81244	1368.23315	1429.73218	302.26343	1215.36121	1330.06897	537.50067	1241.14661	1577.91516	421.47568	1399.21716	1658.05457	472.63831	1219.47546	1657.51477	498.61105	1069.64819	1697.68640	469.57755	963.15869	1710.16833	387.75180	849.43115	1717.06262	447.63016	844.06122	1743.71387	403.20102	776.55377	1266.63538	398.72467	1397.43213	1157.11182	452.83578	1202.20251	1145.35645	451.34225	1076.84448	1110.10327	409.89111	963.98663	1125.73413	315.80374	857.93121	1085.51135	358.62314	855.69592	1084.07593	311.20404	784.27344	1518.09131	352.71570	938.66040	1301.41541	344.67899	940.24500	1462.74756	536.24286	944.16797	1318.38647	530.63531	949.90131	1594.12537	300.70880	623.89038	1586.84290	278.11707	493.32800	1586.49927	399.70883	355.37045	1533.75439	522.90552	175.81087	1471.92261	566.55420	166.90497	1557.81018	427.63681	69.13059	1256.60913	398.92816	603.72504	1288.05750	394.56403	445.80188	1285.27368	455.30035	278.93637	1342.40906	491.83502	77.71418	1392.24634	544.35852	43.28351	1347.60510	352.35938	35.58871	1385.95691	338.28711	1714.14636	-3102.00244	1973.07727	1023.70306	-3140.65649	2012.61011	1021.99329			 
79	0.780	1475.98303	336.51929	1673.82971	1364.68115	312.16797	1681.26501	1456.40430	449.06009	1622.39893	1337.54138	426.57230	1628.85278	1411.44287	480.75797	1435.86743	1403.13513	515.88031	1142.19397	1422.14795	335.55637	1367.98718	1429.45398	293.22641	1215.06799	1329.37244	528.09259	1241.14539	1577.55640	412.47943	1398.93201	1657.03979	464.86374	1219.09180	1655.34900	492.00098	1069.71619	1694.81653	465.53265	962.51538	1706.40002	386.79379	846.46002	1713.36804	446.79639	842.63440	1739.22461	404.11758	773.58643	1266.25977	389.30154	1397.48755	1156.25964	443.02942	1202.52722	1143.70752	440.89267	1077.02441	1108.14575	397.69434	964.87006	1123.16638	301.10840	860.77216	1083.45142	344.28635	857.34802	1081.45178	295.42538	787.42499	1517.49182	343.69107	939.34369	1301.02271	336.28729	939.77289	1462.59656	527.50604	944.10022	1318.25586	522.02264	949.87946	1593.93640	287.96472	625.87097	1585.53931	264.12830	494.56635	1585.47559	380.64526	351.02866	1531.70154	496.45294	167.11555	1469.53528	539.22992	155.42894	1557.49377	395.41678	66.11710	1256.47009	394.28995	603.65186	1287.79260	391.94934	445.77420	1285.12646	453.67816	279.35480	1342.38037	491.53528	78.02294	1392.08130	543.19293	43.86013	1347.53503	352.48083	35.33274	1385.81409	328.66083	1713.92297	-3101.86499	1973.12097	1023.19043	-3140.62061	2012.52930	1021.94470			 
80	0.790	1475.87354	326.97946	1673.50464	1364.59229	302.50577	1681.04016	1455.25146	438.86923	1621.90869	1337.34595	416.93274	1628.70813	1411.10754	471.38629	1435.75281	1402.50781	506.74768	1142.09070	1422.06970	326.29837	1367.69604	1429.31274	284.08514	1214.55457	1328.83923	518.69897	1241.08850	1577.30591	403.50549	1398.54358	1656.08801	457.10165	1218.60229	1653.31323	485.32889	1069.67224	1692.06604	461.28860	961.86157	1702.67566	385.63309	843.60645	1709.73535	445.71939	841.32098	1734.72705	404.76074	770.69098	1266.10876	379.66809	1397.21399	1155.44031	433.30884	1202.64050	1142.10974	430.44391	1077.20642	1106.25671	385.50809	965.64642	1120.78381	286.89209	863.53729	1081.05579	330.06775	859.23834	1078.80603	279.84998	790.42267	1517.04236	334.93378	939.41809	1300.57068	327.41226	939.27808	1462.48120	518.72070	943.90656	1318.18164	513.35577	949.75671	1593.90210	275.17950	627.46649	1584.26538	250.55283	495.64441	1584.19373	361.58682	346.45349	1529.80151	469.21225	158.01933	1467.30920	510.88049	143.66617	1557.81482	363.42331	63.42170	1256.28162	389.65536	603.49207	1287.94861	389.36221	445.40491	1285.08057	451.81143	279.86591	1342.34827	491.30685	78.43982	1392.22839	542.91394	44.50457	1347.50696	352.35730	35.24865	1385.79517	319.07687	1713.59192	-3101.82397	1973.15137	1023.53296	-3140.49243	2012.56165	1022.02228			 
